<?xml version="1.0" encoding="UTF-8"?>
<svg xmlns="http://www.w3.org/2000/svg" width="1200" height="630" viewBox="0 0 1200 630">
  <defs>
    <linearGradient id="bg" x1="0" y1="0" x2="1" y2="1">
      <stop offset="0" stop-color="#2a241d"/>
      <stop offset="1" stop-color="#1f1b16"/>
    </linearGradient>
    <pattern id="noise" patternUnits="userSpaceOnUse" width="120" height="120">
      <rect width="120" height="120" fill="none"/>
      <circle cx="12" cy="18" r="1.4" fill="#000" opacity="0.10"/>
      <circle cx="66" cy="30" r="1.0" fill="#000" opacity="0.10"/>
      <circle cx="92" cy="86" r="1.2" fill="#000" opacity="0.10"/>
      <circle cx="28" cy="96" r="1.1" fill="#000" opacity="0.10"/>
      <circle cx="108" cy="52" r="1.2" fill="#000" opacity="0.10"/>
      <circle cx="44" cy="56" r="1.0" fill="#000" opacity="0.08"/>
      <circle cx="78" cy="110" r="1.3" fill="#000" opacity="0.08"/>
    </pattern>
  </defs>

  <rect width="1200" height="630" fill="url(#bg)"/>
  <rect width="1200" height="630" fill="#e8e1cf" opacity="0.06"/>
  <rect width="1200" height="630" fill="url(#noise)" opacity="0.35"/>

  <g transform="translate(80,84)">
    <rect x="0" y="0" width="1040" height="462" rx="18" fill="#e8e1cf" opacity="0.92"/>
    <rect x="18" y="18" width="1004" height="426" rx="14" fill="#efe2c6" opacity="0.98"/>

    <g transform="translate(54,64)" fill="#2c2a25">
      <text x="0" y="0" font-family="ui-serif, Georgia, 'Times New Roman', serif" font-size="66" font-weight="800">
        Shartaz Feeham
      </text>
      <text x="0" y="68" font-family="ui-serif, Georgia, 'Times New Roman', serif" font-size="30" font-weight="700" opacity="0.9">
        Backend-focused Software Engineer
      </text>

      <g transform="translate(0,128)" opacity="0.9">
        <text x="0" y="0" font-family="ui-serif, Georgia, 'Times New Roman', serif" font-size="26" font-weight="600">
          Java · Spring Boot · Microservices · Kafka · Docker · PostgreSQL
        </text>
      </g>

      <g transform="translate(0,332)" opacity="0.85">
        <text x="0" y="0" font-family="ui-serif, Georgia, 'Times New Roman', serif" font-size="22" font-weight="700">
          feeham.com
        </text>
      </g>
    </g>
  </g>
</svg>
